<svg xmlns="http://www.w3.org/2000/svg" version="1.1" width="256" height="256" viewBox="0 0 256 256" xml:space="preserve">

<defs>
</defs>
<g style="stroke: none; stroke-width: 0; stroke-dasharray: none; stroke-linecap: butt; stroke-linejoin: miter; stroke-miterlimit: 10; fill: none; fill-rule: nonzero; opacity: 1;" transform="translate(1.4065934065934016 1.4065934065934016) scale(2.81 2.81)" >
	<path d="M 80.072 81.716 H 9.928 c -0.908 0 -1.644 -0.736 -1.644 -1.644 V 9.928 c 0 -0.908 0.736 -1.644 1.644 -1.644 h 70.144 c 0.908 0 1.644 0.736 1.644 1.644 v 70.144 C 81.716 80.98 80.98 81.716 80.072 81.716 z" style="stroke: none; stroke-width: 1; stroke-dasharray: none; stroke-linecap: butt; stroke-linejoin: miter; stroke-miterlimit: 10; fill: rgb(248,218,127); fill-rule: nonzero; opacity: 1;" transform=" matrix(1 0 0 1 0 0) " stroke-linecap="round" />
	<path d="M 89 41.59 c -0.553 0 -1 -0.448 -1 -1 V 2 H 57.214 c -0.553 0 -1 -0.448 -1 -1 s 0.447 -1 1 -1 H 89 c 0.553 0 1 0.448 1 1 v 39.59 C 90 41.143 89.553 41.59 89 41.59 z" style="stroke: none; stroke-width: 1; stroke-dasharray: none; stroke-linecap: butt; stroke-linejoin: miter; stroke-miterlimit: 10; fill: rgb(0,0,0); fill-rule: nonzero; opacity: 1;" transform=" matrix(1 0 0 1 0 0) " stroke-linecap="round" />
	<path d="M 43.705 90 H 1 c -0.552 0 -1 -0.447 -1 -1 V 1 c 0 -0.552 0.448 -1 1 -1 h 21.787 c 0.552 0 1 0.448 1 1 s -0.448 1 -1 1 H 2 v 86 h 41.705 c 0.552 0 1 0.447 1 1 S 44.257 90 43.705 90 z" style="stroke: none; stroke-width: 1; stroke-dasharray: none; stroke-linecap: butt; stroke-linejoin: miter; stroke-miterlimit: 10; fill: rgb(0,0,0); fill-rule: nonzero; opacity: 1;" transform=" matrix(1 0 0 1 0 0) " stroke-linecap="round" />
	<path d="M 57.214 26.427 c -0.211 0 -0.42 -0.066 -0.596 -0.197 L 45 17.604 L 33.383 26.23 c -0.303 0.227 -0.708 0.261 -1.045 0.091 c -0.338 -0.17 -0.551 -0.516 -0.551 -0.894 V 1 c 0 -0.552 0.448 -1 1 -1 H 45 c 0.552 0 1 0.448 1 1 s -0.448 1 -1 1 H 33.787 v 21.439 l 10.617 -7.883 c 0.354 -0.263 0.838 -0.263 1.192 0 l 10.618 7.883 V 1 c 0 -0.552 0.447 -1 1 -1 s 1 0.448 1 1 v 24.427 c 0 0.378 -0.213 0.724 -0.551 0.894 C 57.521 26.392 57.367 26.427 57.214 26.427 z" style="stroke: none; stroke-width: 1; stroke-dasharray: none; stroke-linecap: butt; stroke-linejoin: miter; stroke-miterlimit: 10; fill: rgb(0,0,0); fill-rule: nonzero; opacity: 1;" transform=" matrix(1 0 0 1 0 0) " stroke-linecap="round" />
	<path d="M 30.58 68.555 H 13.982 c -0.552 0 -1 -0.447 -1 -1 s 0.448 -1 1 -1 H 30.58 c 0.552 0 1 0.447 1 1 S 31.132 68.555 30.58 68.555 z" style="stroke: none; stroke-width: 1; stroke-dasharray: none; stroke-linecap: butt; stroke-linejoin: miter; stroke-miterlimit: 10; fill: rgb(0,0,0); fill-rule: nonzero; opacity: 1;" transform=" matrix(1 0 0 1 0 0) " stroke-linecap="round" />
	<path d="M 30.58 77.623 H 13.982 c -0.552 0 -1 -0.447 -1 -1 s 0.448 -1 1 -1 H 30.58 c 0.552 0 1 0.447 1 1 S 31.132 77.623 30.58 77.623 z" style="stroke: none; stroke-width: 1; stroke-dasharray: none; stroke-linecap: butt; stroke-linejoin: miter; stroke-miterlimit: 10; fill: rgb(0,0,0); fill-rule: nonzero; opacity: 1;" transform=" matrix(1 0 0 1 0 0) " stroke-linecap="round" />
	<path d="M 69.468 74.522 H 57.214 c -0.553 0 -1 -0.447 -1 -1 s 0.447 -1 1 -1 h 12.254 c 3.352 0 6.078 -2.727 6.078 -6.077 c 0 -3.352 -2.727 -6.078 -6.078 -6.078 h -7.254 c -0.553 0 -1 -0.447 -1 -1 s 0.447 -1 1 -1 h 7.254 c 4.454 0 8.078 3.624 8.078 8.078 S 73.922 74.522 69.468 74.522 z" style="stroke: none; stroke-width: 1; stroke-dasharray: none; stroke-linecap: butt; stroke-linejoin: miter; stroke-miterlimit: 10; fill: rgb(0,0,0); fill-rule: nonzero; opacity: 1;" transform=" matrix(1 0 0 1 0 0) " stroke-linecap="round" />
	<path d="M 65.795 65.146 c -0.256 0 -0.512 -0.098 -0.707 -0.293 l -4.777 -4.778 c -0.391 -0.391 -0.391 -1.023 0 -1.414 l 4.777 -4.777 c 0.391 -0.391 1.023 -0.391 1.414 0 s 0.391 1.023 0 1.414 l -4.07 4.07 l 4.07 4.071 c 0.391 0.391 0.391 1.023 0 1.414 C 66.307 65.048 66.051 65.146 65.795 65.146 z" style="stroke: none; stroke-width: 1; stroke-dasharray: none; stroke-linecap: butt; stroke-linejoin: miter; stroke-miterlimit: 10; fill: rgb(0,0,0); fill-rule: nonzero; opacity: 1;" transform=" matrix(1 0 0 1 0 0) " stroke-linecap="round" />
	<path d="M 65.795 90 c -5.672 0 -11.188 -2.003 -15.529 -5.639 c -0.424 -0.354 -0.479 -0.985 -0.125 -1.408 c 0.353 -0.423 0.985 -0.481 1.408 -0.125 C 55.532 86.163 60.592 88 65.795 88 C 78.039 88 88 78.039 88 65.795 c 0 -12.243 -9.961 -22.205 -22.205 -22.205 c -12.243 0 -22.205 9.961 -22.205 22.205 c 0 0.553 -0.448 1 -1 1 s -1 -0.447 -1 -1 c 0 -13.347 10.858 -24.205 24.205 -24.205 S 90 52.448 90 65.795 S 79.142 90 65.795 90 z" style="stroke: none; stroke-width: 1; stroke-dasharray: none; stroke-linecap: butt; stroke-linejoin: miter; stroke-miterlimit: 10; fill: rgb(0,0,0); fill-rule: nonzero; opacity: 1;" transform=" matrix(1 0 0 1 0 0) " stroke-linecap="round" />
</g>
</svg>