<?xml version="1.0" ?>
<svg viewBox="0 0 363 341.02" xmlns="http://www.w3.org/2000/svg">
    <defs>
        <style>.cls-1{fill:#426572;}.cls-2{fill:#e1d2d5;}.cls-3{fill:#ffd947;}.cls-4{fill:#ffa546;}.cls-5{fill:#fff;}</style>
    </defs>
    <title/>
    <g data-name="Layer 2" id="Layer_2">
        <g data-name="Layer 1" id="Layer_1-2">
            <rect class="cls-1" height="12" width="148" x="125" y="65"/>
            <path class="cls-2" d="M75,11V295.5H60.5a12,12,0,0,1-12-12V23a12,12,0,0,1,12-12Z"/>
            <path class="cls-1" d="M320.5,296.5H60.5a18,18,0,0,1-18-18V18a18,18,0,0,1,18-18h260a18,18,0,0,1,18,18V278.5A18,18,0,0,1,320.5,296.5ZM60.5,12a6,6,0,0,0-6,6V278.5a6,6,0,0,0,6,6h260a6,6,0,0,0,6-6V18a6,6,0,0,0-6-6Z"/>
            <path class="cls-3" d="M282.63,101.57H238.2a74.37,74.37,0,0,1-52.59-21.78h0A74.37,74.37,0,0,0,133,58H80.37A74.37,74.37,0,0,0,6,132.37V260.65A74.37,74.37,0,0,0,80.37,335H282.63A74.37,74.37,0,0,0,357,260.65V175.94A74.37,74.37,0,0,0,282.63,101.57Z"/>
            <path class="cls-4" d="M347.7,293.66A74.35,74.35,0,0,1,282.63,332H80.37A74.37,74.37,0,0,1,6,257.63V129.35a74.37,74.37,0,0,1,44.3-68,74,74,0,0,0-9.3,36V225.63A74.37,74.37,0,0,0,115.37,300H317.63A73.94,73.94,0,0,0,347.7,293.66Z"/>
            <path class="cls-1" d="M282.63,341H80.37A80.46,80.46,0,0,1,0,260.65V132.37A80.46,80.46,0,0,1,80.37,52H133a79.84,79.84,0,0,1,56.83,23.54,67.93,67.93,0,0,0,48.35,20h44.43A80.46,80.46,0,0,1,363,175.94v84.71A80.46,80.46,0,0,1,282.63,341ZM80.37,64A68.45,68.45,0,0,0,12,132.37V260.65A68.45,68.45,0,0,0,80.37,329H282.63A68.45,68.45,0,0,0,351,260.65V175.94a68.45,68.45,0,0,0-68.37-68.37H238.2A79.84,79.84,0,0,1,181.37,84,67.93,67.93,0,0,0,133,64Z"/>
            <path class="cls-5" d="M306.53,126.14c.56.25,1.14.46,1.68.74l1.63.84,1.62.84.8.42.77.48,3,1.93c1,.67,1.93,1.46,2.88,2.18a46.59,46.59,0,0,1,9,10.14,55.54,55.54,0,0,1,5.54,10.66c.37.86.68,1.72,1,2.58s.59,1.68.83,2.51c.46,1.66.94,3.24,1.24,4.79A57.46,57.46,0,0,1,338,179a20.43,20.43,0,0,1-.47,4c-.21.91-.45,1.38-.72,1.39s-.54-.46-.83-1.33-.56-2.16-1-3.79a122,122,0,0,0-3.7-13.5c-.44-1.4-1-2.8-1.6-4.29-.29-.74-.64-1.47-1-2.22s-.66-1.52-1.06-2.27a56.76,56.76,0,0,0-5.51-9.18,43.3,43.3,0,0,0-7.93-8.34c-.81-.57-1.56-1.19-2.42-1.75L309.16,136l-.67-.41-.71-.36-1.42-.72-1.42-.73c-.48-.24-1-.42-1.49-.64-7.93-3.51-16.34-5.06-24.05-6.06s-14.88-1.22-20.9-1.51c-12.05-.48-19.62-1.06-19.65-2.15s7.39-2.35,19.58-3.26a156.38,156.38,0,0,1,21.65-.1C288.27,120.73,297.49,122.15,306.53,126.14Z"/>
        </g>
    </g>
</svg>