<?xml version="1.0" ?><svg id="Layer_1" style="enable-background:new 0 0 128 128;" version="1.1" viewBox="0 0 128 128" xml:space="preserve" xmlns="http://www.w3.org/2000/svg" xmlns:xlink="http://www.w3.org/1999/xlink"><style type="text/css">
	.st0{fill-rule:evenodd;clip-rule:evenodd;}
	.st1{fill-rule:evenodd;clip-rule:evenodd;fill:#7ACED7;}
</style><g id="XMLID_13_"><path class="st0" d="M84.4,25.4v-2.7v-4H71H54.8H41.4v4v2.7H84.4L84.4,25.4z M88.4,22.7H105V124H20.8V22.7h16.6v2.7   v4h4h43.1h4v-4V22.7L88.4,22.7z M37.4,14.7h4h9.5V9.3C50.8,4.2,55,0,60.2,0h5.5C70.8,0,75,4.2,75,9.3v5.3h9.5h4v4H105h4v4V126h0v2   H16.8v-2v-2V22.7v-4h4h16.6V14.7L37.4,14.7z M54.8,14.7H71V9.3C71,6.4,68.6,4,65.6,4h-5.5c-2.9,0-5.3,2.4-5.3,5.3V14.7L54.8,14.7z    M32.5,39.3v4h50v-4H32.5L32.5,39.3z M32.5,80.7v4h50v-4H32.5L32.5,80.7z M32.5,60v4H63v-4H32.5z" id="XMLID_19_"/><path class="st1" d="M88.4,22.7v2.7v4h-4H41.4h-4v-4v-2.7H20.8V124H105V22.7H88.4L88.4,22.7z M32.5,39.3h50v4h-50   V39.3L32.5,39.3z M32.5,80.7h50v4h-50V80.7L32.5,80.7z M32.5,60H63v4H32.5V60z" id="XMLID_14_"/></g></svg>